<svg id="visual" viewBox="0 0 900 675" width="900" height="675" xmlns="http://www.w3.org/2000/svg" xmlns:xlink="http://www.w3.org/1999/xlink" version="1.1"><rect x="0" y="0" width="900" height="675" fill="#001220"></rect><path d="M0 464L21.5 460C43 456 86 448 128.8 438.2C171.7 428.3 214.3 416.7 257.2 412.5C300 408.3 343 411.7 385.8 428.2C428.7 444.7 471.3 474.3 514.2 474.7C557 475 600 446 642.8 436.3C685.7 426.7 728.3 436.3 771.2 448.7C814 461 857 476 878.5 483.5L900 491L900 676L878.5 676C857 676 814 676 771.2 676C728.3 676 685.7 676 642.8 676C600 676 557 676 514.2 676C471.3 676 428.7 676 385.8 676C343 676 300 676 257.2 676C214.3 676 171.7 676 128.8 676C86 676 43 676 21.5 676L0 676Z" fill="#faf169"></path><path d="M0 473L21.5 481.2C43 489.3 86 505.7 128.8 510C171.7 514.3 214.3 506.7 257.2 507.2C300 507.7 343 516.3 385.8 514.3C428.7 512.3 471.3 499.7 514.2 496.7C557 493.7 600 500.3 642.8 505.8C685.7 511.3 728.3 515.7 771.2 513.2C814 510.7 857 501.3 878.5 496.7L900 492L900 676L878.5 676C857 676 814 676 771.2 676C728.3 676 685.7 676 642.8 676C600 676 557 676 514.2 676C471.3 676 428.7 676 385.8 676C343 676 300 676 257.2 676C214.3 676 171.7 676 128.8 676C86 676 43 676 21.5 676L0 676Z" fill="#fbd549"></path><path d="M0 523L21.5 525.7C43 528.3 86 533.7 128.8 542.3C171.7 551 214.3 563 257.2 565.5C300 568 343 561 385.8 550.3C428.7 539.7 471.3 525.3 514.2 524.2C557 523 600 535 642.8 539C685.7 543 728.3 539 771.2 532.3C814 525.7 857 516.3 878.5 511.7L900 507L900 676L878.5 676C857 676 814 676 771.2 676C728.3 676 685.7 676 642.8 676C600 676 557 676 514.2 676C471.3 676 428.7 676 385.8 676C343 676 300 676 257.2 676C214.3 676 171.7 676 128.8 676C86 676 43 676 21.5 676L0 676Z" fill="#fbb72d"></path><path d="M0 587L21.5 585C43 583 86 579 128.8 580.8C171.7 582.7 214.3 590.3 257.2 586.7C300 583 343 568 385.8 559.2C428.7 550.3 471.3 547.7 514.2 556.7C557 565.7 600 586.3 642.8 596C685.7 605.7 728.3 604.3 771.2 595.7C814 587 857 571 878.5 563L900 555L900 676L878.5 676C857 676 814 676 771.2 676C728.3 676 685.7 676 642.8 676C600 676 557 676 514.2 676C471.3 676 428.7 676 385.8 676C343 676 300 676 257.2 676C214.3 676 171.7 676 128.8 676C86 676 43 676 21.5 676L0 676Z" fill="#fa9818"></path><path d="M0 630L21.5 630.5C43 631 86 632 128.8 628.5C171.7 625 214.3 617 257.2 614.3C300 611.7 343 614.3 385.8 612C428.7 609.7 471.3 602.3 514.2 604.7C557 607 600 619 642.8 618.5C685.7 618 728.3 605 771.2 602.8C814 600.7 857 609.3 878.5 613.7L900 618L900 676L878.5 676C857 676 814 676 771.2 676C728.3 676 685.7 676 642.8 676C600 676 557 676 514.2 676C471.3 676 428.7 676 385.8 676C343 676 300 676 257.2 676C214.3 676 171.7 676 128.8 676C86 676 43 676 21.5 676L0 676Z" fill="#f7770f"></path></svg>